<svg xmlns="http://www.w3.org/2000/svg" xmlns:xlink="http://www.w3.org/1999/xlink" width="500" zoomAndPan="magnify" viewBox="0 0 375 112.499997" height="150" preserveAspectRatio="xMidYMid meet" version="1.0"><defs><g/><clipPath id="89a437d217"><path d="M 0.828125 50.992188 L 118.582031 50.992188 L 118.582031 53.40625 L 0.828125 53.40625 Z M 0.828125 50.992188 " clip-rule="nonzero"/></clipPath></defs><g fill="#000000" fill-opacity="1"><g transform="translate(152.74032, 100.975247)"><g><path d="M 8.3125 -7.96875 C 8.3125 -6.882812 7.941406 -6.054688 7.203125 -5.484375 C 6.472656 -4.910156 5.4375 -4.625 4.09375 -4.625 L 2.359375 -4.625 L 2.359375 0 L 1.578125 0 L 1.578125 -11.1875 L 4.328125 -11.1875 C 6.984375 -11.1875 8.3125 -10.113281 8.3125 -7.96875 Z M 2.359375 -5.296875 L 3.90625 -5.296875 C 5.164062 -5.296875 6.070312 -5.503906 6.625 -5.921875 C 7.1875 -6.335938 7.46875 -7.007812 7.46875 -7.9375 C 7.46875 -8.800781 7.203125 -9.441406 6.671875 -9.859375 C 6.148438 -10.273438 5.332031 -10.484375 4.21875 -10.484375 L 2.359375 -10.484375 Z M 2.359375 -5.296875 "/></g></g></g><g fill="#000000" fill-opacity="1"><g transform="translate(171.303029, 100.975247)"><g><path d="M 2.359375 -4.875 L 2.359375 0 L 1.578125 0 L 1.578125 -11.1875 L 4.25 -11.1875 C 5.632812 -11.1875 6.65625 -10.929688 7.3125 -10.421875 C 7.976562 -9.910156 8.3125 -9.140625 8.3125 -8.109375 C 8.3125 -7.359375 8.113281 -6.722656 7.71875 -6.203125 C 7.320312 -5.691406 6.722656 -5.320312 5.921875 -5.09375 L 8.953125 0 L 8.03125 0 L 5.140625 -4.875 Z M 2.359375 -5.546875 L 4.5 -5.546875 C 5.445312 -5.546875 6.175781 -5.753906 6.6875 -6.171875 C 7.207031 -6.597656 7.46875 -7.222656 7.46875 -8.046875 C 7.46875 -8.898438 7.210938 -9.519531 6.703125 -9.90625 C 6.203125 -10.289062 5.375 -10.484375 4.21875 -10.484375 L 2.359375 -10.484375 Z M 2.359375 -5.546875 "/></g></g></g><g fill="#000000" fill-opacity="1"><g transform="translate(190.01105, 100.975247)"><g><path d="M 1.578125 0 L 1.578125 -11.1875 L 2.359375 -11.1875 L 2.359375 0 Z M 1.578125 0 "/></g></g></g><g fill="#000000" fill-opacity="1"><g transform="translate(203.358175, 100.975247)"><g><path d="M 9.71875 0 L 8.9375 0 L 2.296875 -9.9375 L 2.234375 -9.9375 C 2.296875 -8.75 2.328125 -7.851562 2.328125 -7.25 L 2.328125 0 L 1.578125 0 L 1.578125 -11.1875 L 2.359375 -11.1875 L 8.984375 -1.265625 L 9.03125 -1.265625 C 8.976562 -2.179688 8.953125 -3.054688 8.953125 -3.890625 L 8.953125 -11.1875 L 9.71875 -11.1875 Z M 9.71875 0 "/></g></g></g><g fill="#000000" fill-opacity="1"><g transform="translate(224.054541, 100.975247)"><g><path d="M 4.5 0 L 3.71875 0 L 3.71875 -10.453125 L 0.078125 -10.453125 L 0.078125 -11.1875 L 8.140625 -11.1875 L 8.140625 -10.453125 L 4.5 -10.453125 Z M 4.5 0 "/></g></g></g><g fill="#000000" fill-opacity="1"><g transform="translate(241.661327, 100.975247)"><g><path d="M 6.96875 -3.953125 L 2.421875 -3.953125 L 0.859375 0 L 0 0 L 4.5 -11.234375 L 5 -11.234375 L 9.40625 0 L 8.53125 0 Z M 2.703125 -4.65625 L 6.71875 -4.65625 L 5.1875 -8.6875 C 5.0625 -9 4.910156 -9.4375 4.734375 -10 C 4.585938 -9.507812 4.4375 -9.066406 4.28125 -8.671875 Z M 2.703125 -4.65625 "/></g></g></g><g fill="#000000" fill-opacity="1"><g transform="translate(260.461116, 100.975247)"><g><path d="M 5.984375 -5.640625 L 10.109375 -5.640625 L 10.109375 -0.53125 C 9.023438 -0.0703125 7.804688 0.15625 6.453125 0.15625 C 4.691406 0.15625 3.335938 -0.34375 2.390625 -1.34375 C 1.453125 -2.34375 0.984375 -3.753906 0.984375 -5.578125 C 0.984375 -6.710938 1.21875 -7.71875 1.6875 -8.59375 C 2.15625 -9.476562 2.820312 -10.160156 3.6875 -10.640625 C 4.5625 -11.117188 5.5625 -11.359375 6.6875 -11.359375 C 7.90625 -11.359375 9 -11.132812 9.96875 -10.6875 L 9.65625 -9.984375 C 8.6875 -10.429688 7.679688 -10.65625 6.640625 -10.65625 C 5.171875 -10.65625 4.003906 -10.195312 3.140625 -9.28125 C 2.273438 -8.375 1.84375 -7.148438 1.84375 -5.609375 C 1.84375 -3.921875 2.25 -2.648438 3.0625 -1.796875 C 3.882812 -0.953125 5.09375 -0.53125 6.6875 -0.53125 C 7.71875 -0.53125 8.59375 -0.675781 9.3125 -0.96875 L 9.3125 -4.90625 L 5.984375 -4.90625 Z M 5.984375 -5.640625 "/></g></g></g><g fill="#000000" fill-opacity="1"><g transform="translate(281.188073, 100.975247)"><g><path d="M 7.703125 0 L 1.578125 0 L 1.578125 -11.1875 L 7.703125 -11.1875 L 7.703125 -10.46875 L 2.359375 -10.46875 L 2.359375 -6.234375 L 7.40625 -6.234375 L 7.40625 -5.515625 L 2.359375 -5.515625 L 2.359375 -0.71875 L 7.703125 -0.71875 Z M 7.703125 0 "/></g></g></g><g fill="#000000" fill-opacity="1"><g transform="translate(141.669038, 78.915804)"><g><path d="M 1.65625 0 L 17.4375 -46.84375 L 23.859375 -46.84375 L 39.34375 0 L 33.65625 0 L 28.75 -14.40625 L 10.375 -14.40625 L 5.484375 0 Z M 11.390625 -17.359375 L 27.8125 -17.359375 L 19.671875 -42.65625 Z M 11.390625 -17.359375 "/></g></g></g><g fill="#000000" fill-opacity="1"><g transform="translate(186.207053, 78.915804)"><g><path d="M 16.359375 0 L 1.078125 -46.84375 L 6.78125 -46.84375 L 20.390625 -4.03125 L 34.234375 -46.84375 L 38.265625 -46.84375 L 22.703125 0 Z M 16.359375 0 "/></g></g></g><g fill="#000000" fill-opacity="1"><g transform="translate(229.303717, 78.915804)"><g><path d="M 6.78125 0 L 6.78125 -46.84375 L 12.25 -46.84375 L 12.25 0 Z M 6.78125 0 "/></g></g></g><g fill="#000000" fill-opacity="1"><g transform="translate(252.005284, 78.915804)"><g><path d="M 6.78125 0 L 6.78125 -46.84375 L 12.46875 -46.84375 L 36.390625 -8.21875 L 36.171875 -9.9375 L 36.171875 -46.84375 L 40.140625 -46.84375 L 40.140625 0 L 35.375 0 L 10.453125 -39.921875 L 10.375 -39.921875 L 10.734375 -37.6875 L 10.734375 0 Z M 6.78125 0 "/></g></g></g><g fill="#000000" fill-opacity="1"><g transform="translate(302.5249, 78.915804)"><g><path d="M 24 0.71875 C 17.507812 0.71875 12.460938 -1.378906 8.859375 -5.578125 C 5.253906 -9.785156 3.453125 -15.585938 3.453125 -22.984375 C 3.453125 -27.929688 4.28125 -32.253906 5.9375 -35.953125 C 7.601562 -39.660156 9.957031 -42.507812 13 -44.5 C 16.050781 -46.488281 19.597656 -47.484375 23.640625 -47.484375 C 25.847656 -47.484375 27.972656 -47.195312 30.015625 -46.625 C 32.054688 -46.050781 33.796875 -45.398438 35.234375 -44.671875 C 36.679688 -43.953125 37.40625 -43.570312 37.40625 -43.53125 L 36.75 -40.0625 C 36.75 -40.113281 36.050781 -40.472656 34.65625 -41.140625 C 33.269531 -41.816406 31.648438 -42.441406 29.796875 -43.015625 C 27.941406 -43.597656 26.082031 -43.890625 24.21875 -43.890625 C 19.550781 -43.890625 15.894531 -42.125 13.25 -38.59375 C 10.613281 -35.0625 9.296875 -29.90625 9.296875 -23.125 C 9.296875 -16.445312 10.640625 -11.398438 13.328125 -7.984375 C 16.015625 -4.578125 19.785156 -2.875 24.640625 -2.875 C 27.191406 -2.875 29.425781 -3.398438 31.34375 -4.453125 C 33.269531 -5.515625 34.796875 -6.644531 35.921875 -7.84375 C 37.046875 -9.050781 37.609375 -9.75 37.609375 -9.9375 L 39.640625 -7.640625 C 39.640625 -7.398438 39.015625 -6.570312 37.765625 -5.15625 C 36.515625 -3.738281 34.722656 -2.40625 32.390625 -1.15625 C 30.054688 0.09375 27.257812 0.71875 24 0.71875 Z M 24 0.71875 "/></g></g></g><g fill="#000000" fill-opacity="1"><g transform="translate(347.207055, 78.915804)"><g><path d="M 6.78125 0 L 6.78125 -46.84375 L 12.25 -46.84375 L 12.25 0 Z M 6.78125 0 "/></g></g></g><g clip-path="url(#89a437d217)"><path fill="#32312e" d="M 118.582031 53.402344 L 0.828125 52.199219 L 118.582031 50.996094 Z M 118.582031 53.402344 " fill-opacity="1" fill-rule="nonzero"/></g><g fill="#000000" fill-opacity="1"><g transform="translate(72.642415, 80.155622)"><g><path d="M -8.046875 -44.609375 C -6.492188 -49.171875 -3.890625 -52.3125 -0.234375 -54.03125 C 3.410156 -55.75 9.875 -56.609375 19.15625 -56.609375 C 21.09375 -56.609375 25.976562 -56.523438 33.8125 -56.359375 C 39.5 -56.203125 44.515625 -54.96875 48.859375 -52.65625 C 53.210938 -50.34375 56.609375 -47.078125 59.046875 -42.859375 C 61.492188 -38.648438 62.71875 -33.757812 62.71875 -28.1875 C 62.71875 -19.757812 60.046875 -12.953125 54.703125 -7.765625 C 49.367188 -2.585938 42.40625 0 33.8125 0 L 6.515625 0 L 6.609375 -0.8125 L 7.5625 -0.8125 C 8.90625 -0.8125 10.0625 -1.253906 11.03125 -2.140625 C 12 -3.023438 12.5625 -4.109375 12.71875 -5.390625 L 12.71875 -53.953125 C 6.007812 -53.785156 1.257812 -52.738281 -1.53125 -50.8125 C -2.976562 -49.789062 -4.078125 -48.804688 -4.828125 -47.859375 C -5.578125 -46.921875 -6.359375 -45.726562 -7.171875 -44.28125 Z M 17.953125 -53.953125 L 17.953125 -2.421875 L 33.8125 -2.421875 C 40.632812 -2.421875 46.148438 -4.78125 50.359375 -9.5 C 54.578125 -14.226562 56.6875 -20.457031 56.6875 -28.1875 C 56.6875 -33.28125 55.734375 -37.769531 53.828125 -41.65625 C 51.921875 -45.550781 49.234375 -48.570312 45.765625 -50.71875 C 42.304688 -52.875 38.320312 -53.953125 33.8125 -53.953125 Z M 17.953125 -53.953125 "/></g></g></g></svg>